<svg xmlns="http://www.w3.org/2000/svg" viewBox="0 0 200 200">
  <!-- Body -->
  <ellipse cx="100" cy="130" rx="55" ry="60" fill="#7C3AED" />
  <!-- Belly -->
  <ellipse cx="100" cy="145" rx="35" ry="38" fill="#A78BFA" />
  <!-- Head -->
  <circle cx="100" cy="72" r="45" fill="#7C3AED" />
  <!-- Ear tufts -->
  <polygon points="65,38 58,12 78,42" fill="#7C3AED" />
  <polygon points="135,38 142,12 122,42" fill="#7C3AED" />
  <polygon points="68,35 63,18 80,40" fill="#F59E0B" />
  <polygon points="132,35 137,18 120,40" fill="#F59E0B" />
  <!-- Eye whites -->
  <ellipse cx="80" cy="70" rx="20" ry="22" fill="white" />
  <ellipse cx="120" cy="70" rx="20" ry="22" fill="white" />
  <!-- Irises -->
  <circle cx="83" cy="72" r="12" fill="#1E1B4B" />
  <circle cx="117" cy="72" r="12" fill="#1E1B4B" />
  <!-- Pupils -->
  <circle cx="86" cy="69" r="5" fill="white" />
  <circle cx="120" cy="69" r="5" fill="white" />
  <!-- Beak -->
  <polygon points="100,82 92,95 108,95" fill="#F59E0B" rx="3" />
  <!-- Smile under beak -->
  <path d="M93,96 Q100,103 107,96" stroke="#7C3AED" stroke-width="2" fill="none" stroke-linecap="round" />
  <!-- Wings -->
  <ellipse cx="48" cy="130" rx="18" ry="35" fill="#6D28D9" transform="rotate(15, 48, 130)" />
  <ellipse cx="152" cy="130" rx="18" ry="35" fill="#6D28D9" transform="rotate(-15, 152, 130)" />
  <!-- Feet -->
  <ellipse cx="82" cy="188" rx="14" ry="6" fill="#F59E0B" />
  <ellipse cx="118" cy="188" rx="14" ry="6" fill="#F59E0B" />
  <!-- Graduation cap -->
  <polygon points="60,48 100,33 140,48 100,58" fill="#1E1B4B" />
  <rect x="96" y="33" width="8" height="3" fill="#1E1B4B" />
  <line x1="135" y1="48" x2="142" y2="62" stroke="#F59E0B" stroke-width="2" />
  <circle cx="142" cy="64" r="3" fill="#F59E0B" />
  <!-- Rosy cheeks -->
  <circle cx="65" cy="85" r="8" fill="#F9A8D4" opacity="0.5" />
  <circle cx="135" cy="85" r="8" fill="#F9A8D4" opacity="0.5" />
</svg>